<svg xmlns="http://www.w3.org/2000/svg" version="1.1" xmlns:xlink="http://www.w3.org/1999/xlink" xmlns:svgjs="http://svgjs.dev/svgjs" viewBox="0 0 15.774390095317282 15.763669558023185"><g transform="matrix(1,0,0,1,3.95292810516518,5.133638955387405)"><g><path d=" M -0.36061421833341545 -1.2280970677454954 L -0.8629037276862556 -1.7298990693298686 L -0.6466341326372158 -1.9463787733608109 Q -0.6098824367465294 -1.9831661740458075 -0.5639283976393152 -1.999451943592643 Q -0.517974358532101 -2.0157377131394782 -0.47024345482403657 -2.013286013481796 Q -0.4225125511159721 -2.010834313824114 -0.37901639134237847 -1.9921171002240607 Q -0.3355202315687848 -1.9733998866240077 -0.30368498097599916 -1.9415955344109137 Q -0.2591156301460993 -1.897069441312582 -0.24034794919254993 -1.8366209165032388 Q -0.2215802682390006 -1.7761723916938954 -0.23357087035330168 -1.7139411659230936 Q -0.2455614724676027 -1.6517099401522917 -0.2950349092435268 -1.6021884392301806 L -0.3770194616150582 -1.520124237702111 L -0.22279535874334114 -1.366049820314233 L -0.36061421833341545 -1.2280970677454954 M -0.49728596385447066 -1.6402740127293554 L -0.42448933545561085 -1.7131413640861757 Q -0.41600817486545244 -1.7216307642442519 -0.41318592775001833 -1.7343600580667475 Q -0.4103636806345842 -1.747089351889243 -0.41708960548967644 -1.764410204490765 Q -0.42381553034476865 -1.781731057092287 -0.44362413071361306 -1.8015204318026568 Q -0.4648476311088035 -1.8227233332780528 -0.4825280450775205 -1.82837160397755 Q -0.5002084590462375 -1.8340198746770473 -0.513641426413277 -1.8297707114987203 Q -0.5270743937803166 -1.8255215483203935 -0.5355555543704751 -1.8170321481623173 L -0.6048183658567688 -1.747702046871362 L -0.49728596385447066 -1.6402740127293554 M -0.25527755993604895 -2.298773186162718 L -0.08604326590268069 -2.4361913571701486 L 0.5369560545873056 -2.0274764850783495 L 0.3832478425753472 -1.9026654857229768 L 0.26224692324751375 -1.9834663367198515 L 0.11552544814518986 -1.8643285646079046 L 0.17054051888203114 -1.7299472340897841 L 0.01605600276900231 -1.6045058761518085 L -0.25527755993604895 -2.298773186162718 M 0.15623488037595226 -2.0648447537983263 L -0.05026192364221227 -2.2192081883619683 L 0.056091651337858206 -1.983528496642553 L 0.15623488037595226 -2.0648447537983263 M 0.28773462003535744 -2.705234498359128 L 0.5511520177040676 -2.5296205051654064 L 0.5041010544529125 -2.843923236393022 L 0.6825823155288724 -2.9583279541486065 L 0.7326499191623286 -2.4262159029165344 L 0.8594664695046045 -2.228371108799315 L 0.6961392777652827 -2.1236799991550535 L 0.5682434376328599 -2.3232085787541217 L 0.11009525170032197 -2.591369425498617 L 0.28773462003535744 -2.705234498359128 M 1.6200754813112273 -2.626369647324341 L 1.462179067045879 -2.965404634253634 L 1.4653384079742233 -2.6767525624355044 L 1.3710612993093934 -2.632845538147814 L 1.1521524212442265 -2.8210180736152672 L 1.3100488355095747 -2.4819830866859744 L 1.1332792567630185 -2.399657416146555 L 0.8335293794143626 -3.0432799849160674 L 1.0266161500452162 -3.1332049481206643 L 1.3063213782933663 -2.895024375254928 L 1.3049149227385126 -3.2628151063545197 L 1.4970951827091274 -3.3523178866332737 L 1.7968450600577834 -2.7086953178637607 L 1.6200754813112273 -2.626369647324341 M 2.367325839265841 -3.0695397386387957 L 2.4187963319064867 -2.907518788180748 L 1.9365457381901796 -2.7543183806738845 L 1.7215807395145413 -3.4309941149398493 L 2.1952537535007166 -3.581469614012796 L 2.2467242461413623 -3.419448663554748 L 1.9588987929747126 -3.3280128472166597 L 1.9891755533515632 -3.2327064057707493 L 2.2350661722820124 -3.310820447543023 L 2.282903453677436 -3.1602362700584847 L 2.037012834746987 -3.0821222282862104 L 2.0709228063690595 -2.9753790138667906 L 2.367325839265841 -3.0695397386387957 M 2.6565622041102697 -3.3179056732079912 L 2.7217515471373166 -2.975048050344357 L 2.5301835343625068 -2.9386242053865512 L 2.397563380926394 -3.6361282518999616 L 2.5468881908841943 -3.6645201720722 L 2.8943030199641364 -3.3631085987453706 L 2.8268722095550705 -3.7177550223951465 L 3.0184402223298803 -3.7541788673529526 L 3.151060375765993 -3.056674820839542 L 2.998788365611657 -3.027722533821799 L 2.6565622041102697 -3.3179056732079912 M 3.811935609435446 -3.647186000767943 L 3.608410873417872 -3.6332690388517466 L 3.6452498902548625 -3.094527090569933 L 3.450704186708652 -3.0812241122676864 L 3.4138651698716616 -3.6199660605495 L 3.209342763579492 -3.6059808782317537 L 3.197745295315995 -3.7755848249130652 L 3.800338141171949 -3.8167899474492546 L 3.811935609435446 -3.647186000767943 M 4.730883610148267 -3.5975332403217855 L 4.527504402800164 -3.613436007956929 L 4.48540884141302 -3.0750792826237157 L 4.291002246153804 -3.090280457569073 L 4.333097807540948 -3.6286371829022865 L 4.128721643294081 -3.64461790528074 L 4.1419739496567 -3.8141005780708257 L 4.744135916510887 -3.7670159131118712 L 4.730883610148267 -3.5975332403217855 M 4.783321997147988 -3.044790772230874 L 4.919702985439689 -3.741569234894997 L 5.239632251395329 -3.6789492318202157 Q 5.2906639134496025 -3.6689607650720912 5.3298107466934 -3.6399000450709904 Q 5.368957579937196 -3.61083932506989 5.393542630248318 -3.5698536531686074 Q 5.41812768055944 -3.5288679812673243 5.426850018040831 -3.482325840911935 Q 5.435572355522221 -3.4357837005565464 5.426928490067113 -3.391621685317271 Q 5.419052968208015 -3.3513851825437087 5.3999771666487835 -3.3163978449074607 Q 5.380901365089553 -3.2814105072712123 5.352278962593125 -3.2549150722807747 Q 5.323656560096698 -3.228419637290337 5.287834484693936 -3.2119946893805618 L 5.384906782518562 -2.927042116142405 L 5.174891865602897 -2.968148498528918 L 5.094094327031876 -3.206099665285596 L 5.016565455834037 -3.2212744513067855 L 4.974690729851515 -3.0073340219254066 L 4.783321997147988 -3.044790772230874 M 5.049220058664444 -3.3881087310996034 L 5.169929566985131 -3.364482165522309 Q 5.181706104382271 -3.36217713473428 5.1942300367540035 -3.3688965928931087 Q 5.206753969125737 -3.3756160510519373 5.217379765281991 -3.3908588347887014 Q 5.228005561438244 -3.406101618525465 5.2326156230143015 -3.4296546933197454 Q 5.237417770489361 -3.454189146230454 5.2322454738332596 -3.472014615293042 Q 5.227073177177159 -3.48984008435563 5.216534723812826 -3.501073561141015 Q 5.205996270448493 -3.5123070379264 5.194219733051353 -3.514612068714429 L 5.078417115312808 -3.5372782047967117 L 5.049220058664444 -3.3881087310996034 M 5.840264900879676 -3.5272882377157955 L 6.04789114440559 -3.4608401903455506 L 6.046723334332115 -2.7157397701204427 L 5.858145370028763 -2.7760916663558026 L 5.859559820087707 -2.9215839318926027 L 5.679553581434507 -2.9791925601172644 L 5.59718394467968 -2.859608936903725 L 5.4076535664152 -2.920265640695829 L 5.840264900879676 -3.5272882377157955 M 5.869659969669489 -3.0548467810983198 L 5.885859779304483 -3.3121531474552173 L 5.746798568683972 -3.0941669559183267 L 5.869659969669489 -3.0548467810983198 M 6.210559196038657 -3.0371046673317026 Q 6.237511188191886 -3.0962535482929883 6.285721143470782 -3.1429686444826235 Q 6.333931098749677 -3.1896837406722587 6.397847237288063 -3.216604499100318 Q 6.461763375826448 -3.2435252575283777 6.5358339177581435 -3.243291125204937 Q 6.609904459689839 -3.2430569928814963 6.687252996331521 -3.207812080065737 Q 6.780071240301538 -3.1655181846868254 6.831607475479162 -3.0953308178483647 Q 6.883143710656785 -3.025143451009904 6.8877878513466575 -2.946102752902836 L 6.708247937016292 -2.9114268367325997 Q 6.710930771983465 -2.9486666326039375 6.696514468404386 -2.9761151333119145 Q 6.682098164825306 -3.0035636340198915 6.659273500729192 -3.0222059168441473 Q 6.636448836633077 -3.040848199668403 6.611879301464543 -3.052043642562821 Q 6.573660024535712 -3.0694587759541374 6.539063890076521 -3.0670907640281717 Q 6.504467755617329 -3.064722752102206 6.475527648434525 -3.04823881457964 Q 6.446587541251722 -3.0317548770570744 6.424259385710357 -3.005664582499124 Q 6.401931230168992 -2.979574287941174 6.388247911075815 -2.949544856068521 Q 6.372906007850132 -2.915875493059789 6.3688178533480455 -2.8803749720387244 Q 6.364729698845959 -2.8448744510176596 6.37285121743252 -2.812052340545477 Q 6.380972736019081 -2.7792302300732947 6.402507520434786 -2.752933784302637 Q 6.424042304850491 -2.72663733853198 6.458621650643242 -2.71088078927317 Q 6.483191185811776 -2.699685346378752 6.512195195045906 -2.6958101111153763 Q 6.541199204280035 -2.691934875852 6.5700070829418955 -2.6996876899864644 Q 6.598814961603756 -2.707440504120929 6.623003428072043 -2.731584200812043 L 6.728299317584163 -2.5792071170630377 Q 6.687628085397166 -2.540595578989667 6.627697025754514 -2.5272438716041377 Q 6.56776596611186 -2.5138921642186083 6.503261435856666 -2.5218555539840706 Q 6.438756905601471 -2.5298189437495324 6.383247955776264 -2.555112351770254 Q 6.311359315838702 -2.587869388387254 6.264816793528894 -2.643693161253668 Q 6.2182742712190855 -2.699516934120082 6.196819005717291 -2.766986716854633 Q 6.175363740215497 -2.834456499589184 6.178863503000773 -2.9048411688037707 Q 6.1823632657860506 -2.9752258380183574 6.210559196038657 -3.0371046673317026 M 6.743563885669461 -2.3876465861972633 L 7.114563229623512 -2.9930055596879224 L 7.280823792765312 -2.8911113736723735 L 7.1397395352053215 -2.6609044400914184 L 7.464989339630076 -2.7782439676243804 L 7.652565359584928 -2.663286424427351 L 7.2664239419258045 -2.526967659878218 L 7.2969131445362745 -2.0485218337660256 L 7.105926651491335 -2.165569514112092 L 7.092247284502111 -2.4800689177979724 L 7.016943977699404 -2.4605391460487356 L 6.909824448811262 -2.2857524001817144 L 6.743563885669461 -2.3876465861972633 M 7.849914098873784 -1.8271403695519433 L 7.745141838187299 -1.6932644068452523 L 7.346663972719148 -2.005115959241494 L 7.784242237939171 -2.5642449799576745 L 8.175632552440499 -2.257940194303658 L 8.070860291754014 -2.124064231596967 L 7.833033581533892 -2.310189071169428 L 7.771402839953607 -2.2314385048713743 L 7.974579301002585 -2.072431191594239 L 7.8772027293057345 -1.9480052968433144 L 7.674026268256757 -2.1070126101204494 L 7.6049998376868375 -2.0188119758666296 L 7.849914098873784 -1.8271403695519433 M 7.832235726843815 -1.6173975868182557 L 8.330039969214994 -2.1236494374590764 L 8.562488002044441 -1.8950801656097742 Q 8.599565602373065 -1.8586212633516033 8.61621516904687 -1.8127977766927454 Q 8.632864735720675 -1.7669742900338874 8.63079150841973 -1.7192254499583566 Q 8.628718281118786 -1.6714766098828258 8.61034647931862 -1.6278334328832598 Q 8.591974677518454 -1.584190255883694 8.560423704410422 -1.5521038709839237 Q 8.531677262245326 -1.5228696091863552 8.496477848980826 -1.5041880325442467 Q 8.461278435716327 -1.4855064559021383 8.422793046703044 -1.4791720393941823 Q 8.38430765768976 -1.4728376228862263 8.345364619950264 -1.4788741625920556 L 8.269323592256242 -1.1876032198132795 L 8.116735006288446 -1.3376456252603675 L 8.180453095734663 -1.5807279262971228 L 8.124123664466177 -1.6361174124201132 L 7.971276728076153 -1.480676703350115 L 7.832235726843815 -1.6173975868182557 M 8.243316229540966 -1.75733264426369 L 8.331019014933672 -1.6710933177684013 Q 8.339575384240277 -1.6626797249395926 8.353728917392939 -1.6613845418264719 Q 8.3678824505456 -1.6600893587133514 8.385149437869709 -1.6669523863797036 Q 8.402416425193815 -1.673815414046056 8.419243610851433 -1.6909281526592668 Q 8.436771929244784 -1.7087539220480281 8.442279857792217 -1.72647855809835 Q 8.44778778633965 -1.744203194148672 8.445185096266876 -1.7593846303253016 Q 8.442582406194102 -1.7745660665019316 8.434026036887497 -1.78297965933074 L 8.349888405372543 -1.8657133221473587 L 8.243316229540966 -1.75733264426369" fill="#ff6b00" fill-rule="nonzero"></path></g><g><path d=" M -1.872617048077983 1.5875410255591147 L -1.811201886472744 1.3421083913700111 L -2.439819858625073 1.1848078984048138 L -2.4228275214220423 1.1169016359809512 L -1.7942095492697134 1.2742021289461483 L -1.7327943876644745 1.0287694947570447 L -1.672648840946196 1.0438198505654432 L -1.8124715013597048 1.6025913813675132 L -1.872617048077983 1.5875410255591147 M -2.5364670183549327 1.6287265999338743 L -1.8328936725759637 1.7240394905069092 L -1.8731667249307673 2.021324002807882 Q -1.8793419262918372 2.0669076280273644 -1.903271198702507 2.1020130396030168 Q -1.9272004711131774 2.137118451178669 -1.9632322332528223 2.1609975658421576 Q -1.9992639953924676 2.1848766805056465 -2.040487230550427 2.1949337617478144 Q -2.0817104657083867 2.2049908429899823 -2.1223393490561864 2.199486859168159 Q -2.172877716147352 2.1926404402678425 -2.214852644589435 2.1672759891150584 Q -2.256827573031519 2.141911537962275 -2.2827813281073013 2.1025713219299966 Q -2.308735083183083 2.0632311058977186 -2.3122008785496804 2.0143231488510693 L -2.6070791034836884 2.1499654448349133 L -2.59647386636359 2.071680523262324 L -2.3144267264765666 1.9413639438046437 L -2.286235589828204 1.7332647851939629 L -2.545864063904387 1.6980929861374345 L -2.5364670183549327 1.6287265999338743 M -2.224796790619336 1.7415878826806224 L -2.255941284440384 1.9714879055267078 Q -2.261579511770057 2.013107737248844 -2.2429492479036455 2.046914737533813 Q -2.2243189840372337 2.0807217378187817 -2.189440559633051 2.102601991726854 Q -2.1545621352288684 2.124482245634926 -2.112942303506732 2.130120472964599 Q -2.0703315234102595 2.13589294380212 -2.031544159343912 2.1214693385390584 Q -1.9927567952775647 2.107045733275996 -1.9660975428498881 2.0778603900366677 Q -1.9394382904222114 2.048675046797339 -1.9340685501082375 2.009037111823876 L -1.9037295173342856 1.78508277922381 L -2.224796790619336 1.7415878826806224 M -1.9159445824104542 2.606245511395656 L -1.91716443647107 2.665232899505919 L -2.6331119365756206 2.9454902403447365 L -2.631581950126712 2.8715060586471184 L -2.407727259718999 2.784115683991399 L -2.4011317775946517 2.4651838737003158 L -2.6212028528651996 2.369613366590304 L -2.6196521909237385 2.2946293986535293 L -1.9159445824104542 2.606245511395656 M -2.352408208684519 2.769256256255292 L -1.9985266433053597 2.6335439219418784 L -2.346453666829309 2.481317819378076 L -2.352408208684519 2.769256256255292 M -2.2677201398406424 3.040162601409197 Q -2.2030217522336044 3.0339081117378117 -2.1386467484944345 3.050289775071608 Q -2.074271744755264 3.0666714384054043 -2.018873129099387 3.1045164299288857 Q -1.9634745134435094 3.142361421452367 -1.927053995423326 3.202134290441077 Q -1.8906334774031421 3.261907159429787 -1.882935643961437 3.341535944176911 Q -1.8737944667494122 3.43609512606412 -1.910597571489222 3.5074676101284328 Q -1.947400676229032 3.5788400941927456 -2.012006009887405 3.6172347665170443 L -2.051140503896105 3.565761556216122 Q -2.00657171997166 3.538345803454322 -1.982567127345582 3.5008620798818693 Q -1.9585625347195044 3.4633783563094163 -1.9504190222692777 3.422906968824268 Q -1.942275509819051 3.38243558133912 -1.9460282036218821 3.3436165487748974 Q -1.9521864703752463 3.2799135209771983 -1.9822830684964363 3.2335945747291284 Q -2.0123796666176266 3.187275628481059 -2.05790592626825 3.1580205488841067 Q -2.1034321859188734 3.128765469287154 -2.1573243655155356 3.1168960557245096 Q -2.211216545112198 3.1050266421618646 -2.2649659748165067 3.1102226797350156 Q -2.3236922035675103 3.115899831898273 -2.375517174911393 3.141003065658205 Q -2.427342146255275 3.1661062994181366 -2.465185553294078 3.205932503652227 Q -2.5030289603328812 3.245758707886317 -2.522748464137654 3.296391120130783 Q -2.542467967942427 3.3470235323752493 -2.536983261615212 3.4037590415075747 Q -2.5331343448943597 3.4435734338811366 -2.5151579450067176 3.484031425021078 Q -2.497181545119076 3.52448941616102 -2.4648039741404655 3.558029584579277 Q -2.4324264031618554 3.591569752997534 -2.3845229477357903 3.609041414574013 L -2.4088028127707255 3.6696589710563168 Q -2.463673786862164 3.6528608699059872 -2.504928354036689 3.6106345666431796 Q -2.546182921211214 3.5684082633803724 -2.5705313524568605 3.513998669595121 Q -2.5948797837025066 3.4595890758098697 -2.600075821275657 3.4058396461055613 Q -2.607100094291213 3.333178380023811 -2.5816158582963333 3.269430409736458 Q -2.5561316223014536 3.2056824394491046 -2.508157152163102 3.1563372247373978 Q -2.4601826820247505 3.1069920100256914 -2.3972959645455547 3.076800773471158 Q -2.3344092470663584 3.046609536916625 -2.2677201398406424 3.040162601409197 M -2.528641809189944 3.9014664707375144 L -1.8356375055914411 3.751713223046673 L -1.820852276623375 3.8201339582397553 L -2.2235571751883723 3.907155591594659 L -1.7372887728847042 4.202101418690141 L -1.7210250210198315 4.277364227402531 L -2.0872391036052713 4.059806773574572 L -2.411838500342221 4.441990278762863 L -2.428524687320467 4.364772591902099 L -2.13779633477202 4.024693152617002 L -2.300774862049136 3.9238417785729047 L -2.5138565802218773 3.9698872059305965 L -2.528641809189944 3.9014664707375144 M -2.368030791406132 4.5702071344449955 L -2.2740322810077136 4.542489269395925 L -2.2573449949067426 4.599080209329666 L -2.3513435053051603 4.626798074378737 L -2.368030791406132 4.5702071344449955 M -1.9225722833366043 5.71468559179717 L -1.3964875905280725 5.47527194140824 L -1.911611007865418 5.427335891188235 L -1.9298362684486583 5.387287921493467 L -1.6280312420287846 4.9664806900588125 L -2.1541159348373164 5.205894340447742 L -2.1831106675833807 5.142181661387885 L -1.5368820656905475 4.848092229249234 L -1.5070589120088815 4.913625270567945 L -1.834670641329319 5.367051730770338 L -1.2767578919115719 5.419685978529093 L -1.2473489486977067 5.484308838718376 L -1.8935775505905401 5.778398270857027 L -1.9225722833366043 5.71468559179717 M -1.0311003914172647 5.839284535466744 L -0.9996258174279786 5.8891879541090875 L -1.4427856124995762 6.517466869903736 L -1.4822621968251213 6.454876141437069 L -1.3435690081541742 6.258630888204576 L -1.513745094638619 5.988814099273941 L -1.7500628094119277 6.0302741726496745 L -1.7900728610932235 5.966837623528051 L -1.0311003914172647 5.839284535466744 M -1.3055843498236608 6.215757053159013 L -1.0849871318068043 5.907557657631988 L -1.4592229482798367 5.972160704531982 L -1.3055843498236608 6.215757053159013 M -0.8258034618326391 6.370599534659577 L -1.274146334364865 6.74012581065298 L -1.3186675724363592 6.68610859709488 L -0.7707786920613501 6.234536039512581 L -0.7338896662306834 6.279293159317864 L -0.89433671601752 7.015415937266421 L -0.43827709869127995 6.639529484405662 L -0.39375586061978574 6.693546697963761 L -0.9408730665153935 7.144483237859324 L -0.9822142161532096 7.094324396698232 L -0.8258034618326391 6.370599534659577 M -0.09697565768510608 6.984096164738865 L -0.05409111911588216 7.024616731759883 L -0.3272888090650561 7.743287742867493 L -0.3810761964230656 7.692465336773336 L -0.2954797840451462 7.467918561717382 L -0.5273470349533224 7.2488327840952715 L -0.7459582025544276 7.347697122458918 L -0.8004724464983561 7.296187927093218 L -0.09697565768510608 6.984096164738865 M -0.26933607948500426 7.416952821147152 L -0.1322135369599523 7.063615293658965 L -0.47867077622969 7.219157510942864 L -0.26933607948500426 7.416952821147152 M 0.038092538015982835 8.028242373755695 Q -0.018964445494454474 7.985987189071569 -0.049833359033479824 7.9251730445250885 Q -0.08070227257250517 7.864358899978608 -0.0859176902400414 7.795789231621869 Q -0.09113310790757762 7.72721956326513 -0.07273260475576893 7.661206901723876 Q -0.05433210160396021 7.595194240182621 -0.013862347258599084 7.540548115130371 Q 0.02898798087178328 7.482687512133872 0.08706341056378203 7.445435069716095 Q 0.14513884025578072 7.408182627298319 0.21025526995529614 7.394187964630428 Q 0.27537169965481156 7.380193301962537 0.34084802875996534 7.392596943642043 Q 0.4063243578651192 7.405000585321549 0.46338134137555653 7.447255770005676 Q 0.5477613874121188 7.509745831862484 0.5752091053032652 7.583580937216022 Q 0.6026568231944116 7.65741604256956 0.5889149879289202 7.733100664280553 L 0.5240943716163542 7.729893219681016 Q 0.5360507765430798 7.65661945642821 0.508693912671432 7.5977840759237205 Q 0.48133704879978434 7.53894869541923 0.4250836847754095 7.497288654181358 Q 0.3776701350977222 7.462175190852295 0.3246196233533708 7.453996364306731 Q 0.2715691116090194 7.445817537761165 0.21925002434017143 7.45933467900311 Q 0.16693093707132345 7.4728518202450545 0.12132499341369829 7.505028642696899 Q 0.07571904975607313 7.537205465148743 0.041795873319520394 7.583011775854305 Q 0.006087266544201775 7.631228945018055 -0.00968051810920742 7.686125456447505 Q -0.025448302762616587 7.7410219678769545 -0.02041283479789957 7.796392484059995 Q -0.015377366833182582 7.851763000243035 0.009612307253848706 7.899512515308886 Q 0.03460198134088005 7.947262030374738 0.0796046725603799 7.980590063365035 Q 0.1318399391544422 8.01927438737163 0.19779203134936463 8.027675073957408 Q 0.2637441235442871 8.036075760543184 0.34680571065096055 8.012972238142465 L 0.30276509562806764 8.07244008011109 Q 0.14899202709260745 8.110372169338929 0.038092538015982835 8.028242373755695 M 0.3998608147148254 7.9228492336831575 L 0.27288893591695085 7.828816569174818 L 0.3050266820147376 7.785421116927443 L 0.4794121104902995 7.914567244764846 L 0.2717070477471961 8.195030445400658 L 0.2242934980695087 8.159916982071595 L 0.3998608147148254 7.9228492336831575 M 0.9228275323197357 8.507948132406872 L 0.8919491532427131 8.56171174189857 L 0.47831622215336667 8.32414743835438 L 0.8319234664224961 7.708467394175268 L 1.2377520025856286 7.9415493523695675 L 1.206873623508606 7.995312961861265 L 0.8617459367715831 7.7970936897216685 L 0.7342481134858124 8.01908536762287 L 1.0351508956409554 8.191904682779754 L 1.005766631680563 8.243066827296046 L 0.70486384952542 8.070247512139161 L 0.5698954506564987 8.305246514917386 L 0.9228275323197357 8.507948132406872 M 1.050496368319324 8.636117039843837 L 1.0931508339912823 8.547886679092905 L 1.1462691124025581 8.573566408426021 L 1.1036146467305998 8.661796769176954 L 1.050496368319324 8.636117039843837 M 2.19731979840412 9.07550325032761 L 2.373637772466227 8.525052551333927 L 1.991920471436361 8.874254358451923 L 1.9500176500596793 8.860832228938545 L 1.841281473612475 8.354530496834416 L 1.664963499550368 8.904981195828098 L 1.598299920087465 8.883627807965905 L 1.8148842826897074 8.207468644842177 L 1.8834525358515501 8.229432129500433 L 1.9989963217115263 8.77676624459755 L 2.412951824156892 8.399039038805851 L 2.480567740469265 8.420697475066074 L 2.2639833778670226 9.096856638189802 L 2.19731979840412 9.07550325032761 M 2.8887509055031946 8.499139371798426 L 2.9468474461566077 8.509424893861322 L 3.1135552229040733 9.2599803662762 L 3.0406883753048772 9.247079880976973 L 2.9887986152684194 9.012440896996564 L 2.674683420888101 8.956829345503955 L 2.546375436186007 9.159565778001143 L 2.472523901457092 9.146490961819495 L 2.8887509055031946 8.499139371798426 M 2.9826318197261257 8.955493810743274 L 2.9030116999064397 8.584939312025611 L 2.6990419263670926 8.905286516605747 L 2.9826318197261257 8.955493810743274 M 3.7522155876578305 8.726569953193586 Q 3.738327285190088 8.708650269754292 3.7192264824088186 8.693905462766372 Q 3.700125679627549 8.679160655778452 3.675812376532752 8.667590725241903 Q 3.6514990734379555 8.656020794705354 3.623438428937039 8.648220138951306 Q 3.5953777844361228 8.640419483197256 3.563442584094698 8.638384052247043 Q 3.470630908102433 8.63246858104799 3.424960938927918 8.665129779978813 Q 3.3792909697534026 8.697790978909635 3.375410929504561 8.758667454560477 Q 3.3727394263824078 8.800582405008596 3.3916713408884736 8.825837753217144 Q 3.41060325539454 8.851093101425692 3.4535600476060866 8.868861444142276 Q 3.4965168398176334 8.88662978685886 3.563361425068054 8.906922677798773 Q 3.6381898104038317 8.927724426476239 3.691679077212384 8.953178273656645 Q 3.7451683440209367 8.978632120837052 3.772722323696242 9.017964400252982 Q 3.800276303371548 9.057296679668912 3.796205441471124 9.121167080351762 Q 3.793088687828612 9.170067855874569 3.7718373028069028 9.204786419131983 Q 3.7505859177851937 9.239504982389397 3.715128194209771 9.261293737260864 Q 3.679670470634348 9.283082492132333 3.632034162135149 9.291569665546909 Q 3.584397853635949 9.300056838961483 3.528511253038456 9.296494834798613 Q 3.4736226274516326 9.292996437852937 3.423956372410555 9.278307560761933 Q 3.3742901173694766 9.26361868367093 3.3308124042762164 9.238301921157131 Q 3.2873346911829557 9.212985158643331 3.250639918368639 9.175575351799328 L 3.289194655122137 9.12091702879296 Q 3.3068840359809757 9.142085066133038 3.3322172474628204 9.1612352200754 Q 3.3575504589446656 9.18038537401776 3.389094145750707 9.196424258725942 Q 3.4206378325567486 9.212463143434125 3.4575848413278996 9.222333226658925 Q 3.49453185009905 9.232203309883726 3.5344508505258307 9.234747598571492 Q 3.6192787264327397 9.240154212032992 3.6686543631725597 9.212238329518957 Q 3.7180299999123796 9.184322447004924 3.7219100401612213 9.123445971354084 Q 3.724708757717763 9.079535070884624 3.7024429487173385 9.051562159889224 Q 3.6801771397169145 9.023589248893822 3.633355661897078 9.003570527287122 Q 3.5865341840772413 8.983551805680422 3.5176936488054813 8.963131700306121 Q 3.4449248207082372 8.941459191052374 3.3953638467251688 8.917257747751414 Q 3.3458028727421 8.893056304450454 3.3225489589632247 8.857004182543905 Q 3.2992950451843495 8.820952060637357 3.3029206565644147 8.764067485029194 Q 3.3071187328992266 8.698201134325007 3.3424470491283187 8.654860505898352 Q 3.3777753653574107 8.611519877471698 3.436154710569635 8.59169307610103 Q 3.4945340557818594 8.571866274730361 3.5683842065714035 8.576573208802728 Q 3.615289032072871 8.57956274801085 3.655102751441642 8.591619602908574 Q 3.694916470810413 8.603676457806296 3.7282016787690173 8.623834456991545 Q 3.761486886727621 8.643992456176793 3.789708742183465 8.672845997980694 L 3.7522155876578305 8.726569953193586 M 4.474817013294604 8.636983912629114 L 4.222052310886389 8.647892863838388 L 4.249993023865084 9.295290204393817 L 4.180058125965578 9.298308491289664 L 4.152117412986883 8.650911150734235 L 3.899352710578668 8.66182010194351 L 3.8966793707566323 8.599877763803947 L 4.472143673472569 8.575041574489552 L 4.474817013294604 8.636983912629114 M 5.162821046560527 9.12865217683499 L 5.1720966072868055 9.189954411486045 L 4.700464898761747 9.261316386751123 L 4.594244767864042 8.559306925424515 L 5.056977764907496 8.48929140252293 L 5.066253325633775 8.550593637173986 L 4.672732529002803 8.610136752803967 L 4.7110316184532435 8.863255657169617 L 5.05412638335512 8.811342438266092 L 5.062953126626901 8.869678435756612 L 4.7198583617250245 8.921591654660137 L 4.760401538447951 9.189541744828462 L 5.162821046560527 9.12865217683499 M 5.3947113444560655 9.142189388956377 L 5.211574144882489 8.456215070098631 L 5.501422448625198 8.378833154785852 Q 5.5458658551990805 8.366967927771226 5.587480828309633 8.375523277735311 Q 5.629095801420186 8.384078627699399 5.6650144311012935 8.408127578650145 Q 5.700933060782402 8.432176529600891 5.726097175325291 8.466341823969186 Q 5.7512612898681805 8.500507118337483 5.7618368182942605 8.540119719848986 Q 5.7749917438974325 8.589393931485247 5.767758891451074 8.637901001541984 Q 5.760526039004715 8.686408071598722 5.734223454310814 8.725515922964147 Q 5.707920869616914 8.764623774329573 5.664124538195173 8.786666490904373 L 5.902912037018283 9.006513097441303 L 5.826585317032703 9.026890335140335 L 5.597656221909435 8.81683208272915 L 5.394762409289537 8.870999423448096 L 5.462342615329365 9.124133608716727 L 5.3947113444560655 9.142189388956377 M 5.378770146791563 8.811097440674601 L 5.602919501685926 8.751255426166052 Q 5.643498264209905 8.740421958022264 5.667516642089338 8.710204123486335 Q 5.6915350199687715 8.679986288950406 5.698287017766761 8.639370275781511 Q 5.705039015564751 8.598754262612616 5.694205547420962 8.558175500088636 Q 5.683114139559463 8.516630576552181 5.654859200119799 8.486395524092147 Q 5.626604260680135 8.456160471632115 5.5894003841262165 8.442804889676964 Q 5.552196507572297 8.42944930772181 5.51355006707327 8.439766896430182 L 5.295197678253762 8.498061272632475 L 5.378770146791563 8.811097440674601 M 6.080797764994894 8.188022764073693 L 6.446243283517477 8.44531165421814 L 6.507883672292622 8.001599515020157 L 6.57753716790341 7.971195723329023 L 6.503923744236032 8.48996548329578 L 6.609536915373657 8.73191973120694 L 6.5453823799426685 8.759923223554038 L 6.438969109023697 8.516135988916279 L 6.010227776020806 8.2188266056555 L 6.080797764994894 8.188022764073693 M 7.25181263878998 8.406705528806226 Q 7.187111377234409 8.44463634415625 7.119315358362535 8.449606236018704 Q 7.05151933949066 8.454576127881161 6.987515439504377 8.432400673285015 Q 6.923511539518093 8.410225218688868 6.870186634619291 8.366719994663084 Q 6.816861729720488 8.3232147706373 6.782471123803135 8.26455229349358 Q 6.7465632852717805 8.20330176588764 6.735509871255951 8.135015075833174 Q 6.724456457240123 8.066728385778708 6.738168473581489 8.000151508352275 Q 6.751880489922853 7.933574630925844 6.789584728617043 7.877275071562634 Q 6.827288967311233 7.820975512199425 6.888539494917174 7.78506767366807 Q 6.953240756472746 7.747136858318048 7.021542519549286 7.743029649942999 Q 7.089844282625828 7.738922441567951 7.153669712970742 7.7617821100101345 Q 7.217495143315655 7.784641778452317 7.270567176112124 7.827715660734398 Q 7.323639208908593 7.870789543016479 7.357524070621279 7.92858933667279 Q 7.393431909152634 7.989839864278731 7.404485323168462 8.058126554333198 Q 7.415538737184291 8.126413244387663 7.402258062586629 8.192737249711762 Q 7.388977387988968 8.25906125503586 7.351020277192445 8.314929472655367 Q 7.313063166395922 8.370797690274872 7.25181263878998 8.406705528806226 M 6.842858967921669 8.229150199166893 Q 6.872192131792352 8.279185841436535 6.91564043300278 8.31573026812417 Q 6.959088734213207 8.352274694811806 7.010271040766153 8.370375012375879 Q 7.061453347319099 8.388475329939952 7.115684229472709 8.385082481455091 Q 7.169915111626319 8.38168963297023 7.2199507538959615 8.352356469099545 Q 7.272574446627827 8.321506072614861 7.301518118548089 8.274979049759619 Q 7.330461790468351 8.228452026904376 7.3387302420855685 8.174339803628543 Q 7.346998693702785 8.120227580352708 7.335722553628774 8.065401959836098 Q 7.324446413554762 8.010576339319488 7.296630482298078 7.96312874751207 Q 7.267297318427395 7.913093105242428 7.224101889319301 7.876980020298496 Q 7.180906460211206 7.840866935354565 7.129039939812223 7.822588148149121 Q 7.07717341941324 7.804309360943678 7.023626751105668 7.80788067906991 Q 6.970080082798094 7.811451997196141 6.920044440528452 7.840785161066825 Q 6.868283431283995 7.871129813346843 6.839086887261399 7.917225494458381 Q 6.809890343238803 7.963321175569919 6.801621891621586 8.017433398845753 Q 6.79335344000437 8.071545622121588 6.804198238334677 8.126624114740531 Q 6.815043036664985 8.181702607359474 6.842858967921669 8.229150199166893 M 7.967018339753332 7.9215518413013974 Q 7.900753739725958 7.973175506254712 7.836562587938016 7.985154489188892 Q 7.772371436150074 7.997133472123071 7.7145143947087265 7.978191118635338 Q 7.65665735326738 7.959248765147604 7.60509764067885 7.9182872461597995 Q 7.5535379280903205 7.877325727171995 7.511747342175732 7.823682955721265 L 7.291732198684222 7.5412695413188855 L 7.3461638344209925 7.498864387964376 L 7.566178977912504 7.7812778023667555 Q 7.599980187108127 7.824665338098964 7.641624200713371 7.859407619700008 Q 7.683268214318615 7.894149901301052 7.7295905182323175 7.911303447876808 Q 7.775912822146019 7.928456994452564 7.825679753009837 7.92074320210405 Q 7.875446683873655 7.913029409755535 7.927511726752305 7.872467958720787 Q 7.981154498203036 7.830677372806198 8.000587489213853 7.783213082435715 Q 8.02002048022467 7.735748792065232 8.014324687042036 7.686945022333575 Q 8.008628893859402 7.638141252601917 7.985041610410022 7.589965635745684 Q 7.961454326960642 7.541790018889451 7.928267685204939 7.499191347443282 L 7.708252541713429 7.216777933040903 L 7.76347304173624 7.173758212246473 L 7.983488185227751 7.456171626648852 Q 8.0271224734621 7.512180990957704 8.054447528480285 7.573290248589041 Q 8.08177258349847 7.634399506220379 8.083881705900145 7.694871000353522 Q 8.08599082830182 7.755342494486665 8.058848019755223 7.813249902857294 Q 8.031705211208626 7.871157311227923 7.967018339753332 7.9215518413013974 M 8.400960850855924 7.551113164293661 L 7.899090450075999 7.04889199705656 L 8.11129657707759 6.8368340812340564 Q 8.1438348498845 6.804318534141272 8.184144627306795 6.790897586180522 Q 8.224454404729089 6.777476638219773 8.26758692767501 6.780320133308474 Q 8.310719450620933 6.783163628397175 8.349604392765979 6.800147776134889 Q 8.388489334911025 6.817131923872603 8.417470583406766 6.846133427896154 Q 8.453520429096592 6.882208469486424 8.471535718214865 6.927823153065126 Q 8.489551007333136 6.973437836643828 8.486352600272939 7.020459323139655 Q 8.483154193212743 7.067480809635482 8.456269810086573 7.108483613733803 L 8.773028926865383 7.1793049518848715 L 8.717147980088296 7.235146869718131 L 8.41382265623909 7.167865758611267 L 8.265278367337975 7.31630629968702 L 8.450475613822963 7.501632983935077 L 8.400960850855924 7.551113164293661 M 8.221453064734659 7.2724503667733575 L 8.385559136282556 7.108458911870621 Q 8.415267994062779 7.078770803655471 8.420938186973219 7.040589015950356 Q 8.426608379883657 7.002407228245243 8.412126154269268 6.963864847140101 Q 8.397643928654878 6.925322466034961 8.367955820439729 6.895613608254738 Q 8.337560852505169 6.865197396717843 8.29796707449166 6.853162749127779 Q 8.258373296478153 6.841128101537715 8.219479955699626 6.848185582893366 Q 8.180586614921099 6.855243064249018 8.15229246465422 6.883517453025352 L 7.992430515646354 7.043267749611638 L 8.221453064734659 7.2724503667733575 M 9.109253719403432 6.776378364299931 L 8.5362801778342 6.357091683541274 L 8.70990029634553 6.119832217032325 Q 8.737065348901726 6.082709987578544 8.775134411576406 6.062860643330655 Q 8.813203474251088 6.0430112990827665 8.855966385747205 6.039607859590819 Q 8.898729297243321 6.036204420098873 8.940054708206874 6.046618852809942 Q 8.981380119170428 6.057033285521012 9.014467323683581 6.081245614973271 Q 9.06127361299487 6.115497202978909 9.087775482053278 6.166488878146636 Q 9.114277351111687 6.217480553314363 9.112936458175513 6.273500210633323 Q 9.111595565239341 6.329519867952283 9.074981798750557 6.379554177216075 L 8.939156535969582 6.5651653244849815 L 9.15059184285851 6.719888015131134 L 9.109253719403432 6.776378364299931 M 8.88912222670579 6.528551557996197 L 9.023175855624403 6.345361425691668 Q 9.047978729697451 6.3114672161903895 9.047724498214953 6.272867535280396 Q 9.047470266732454 6.234267854370403 9.027650340725181 6.198698618603153 Q 9.007830414717906 6.163129382835903 8.973129200228502 6.1377359641420695 Q 8.937620980750973 6.111752000827448 8.895950903774585 6.106041949620849 Q 8.854280826798199 6.100331898414249 8.817737519377925 6.113862851181417 Q 8.781194211957649 6.127393803948585 8.758162971746962 6.158866998485486 L 8.62765261055307 6.337215100861261 L 8.88912222670579 6.528551557996197 M 8.987921182433956 5.685738358459383 L 9.017690819951941 5.6347994864454884 L 9.779532213132784 5.738349916846668 L 9.74219402370345 5.802239349542061 L 9.504105273894314 5.7696548867672455 L 9.343147403246235 6.045070143927113 L 9.488899819736877 6.23565144701621 L 9.45105706018012 6.300404250423702 L 8.987921182433956 5.685738358459383 M 9.448546762690045 5.755717461152554 L 9.073350114521428 5.702075358257209 L 9.303230565992092 6.004368226237324 L 9.448546762690045 5.755717461152554 M 9.180327510555049 5.337413445691221 L 9.623691953059968 5.281057690685161 L 9.37007166793311 4.911792540728965 L 9.401017066990477 4.842377972537696 L 9.696397496892192 5.275149738750648 L 9.937521786398706 5.382644282844657 L 9.909019445161658 5.446578753547142 L 9.666068456492216 5.33826985684636 L 9.148974935194296 5.407741363463954 L 9.180327510555049 5.337413445691221 M 10.304456681254706 4.324910666717768 L 9.749915791745652 4.161912501505681 L 10.10821740235129 4.535101402516155 L 10.095809237525456 4.577315587876706 L 9.592275697708356 4.698224538245407 L 10.14681658721741 4.861222703457494 L 10.127076324994494 4.928381634712915 L 9.445892879403786 4.7281589750233275 L 9.466197149118788 4.659081217160608 L 10.010587052345688 4.5303775526261205 L 9.622991231917958 4.125647420331829 L 9.643013497886916 4.0575290757727585 L 10.324196943477624 4.257751735462346 L 10.304456681254706 4.324910666717768 M 10.39160203524926 3.494392368163342 L 10.452849181020012 3.5040249760623565 L 10.378740246055013 3.975232855621213 L 9.677361641260909 3.864923958713143 L 9.750072294434116 3.4026067938629447 L 9.811319440204867 3.4122394017619593 L 9.749484312078936 3.8054065633225984 L 10.002375752680754 3.845179912066916 L 10.05628728398653 3.5023934671886705 L 10.11457085818773 3.5115599811570877 L 10.060659326881954 3.8543464260353333 L 10.328368625331535 3.8964502444326388 L 10.39160203524926 3.494392368163342 M 9.899227643943425 3.1798480371915416 L 10.479869807488395 3.200236217929803 L 10.477413400170532 3.2701931051038957 L 9.767850687404733 3.2452781165941444 L 9.769885996325248 3.1873138386498963 L 10.377874039427919 2.742375034493432 L 9.78723803485808 2.721635938424048 L 9.789694442175941 2.651679051249955 L 10.498257770839253 2.676558948226594 L 10.495976821186952 2.7415189148882515 L 9.899227643943425 3.1798480371915416 M 9.797382323740145 1.9491653112246146 L 9.81908393255115 2.2012328422059255 L 10.46469563245585 2.1456492749745766 L 10.470700030150596 2.215391279593912 L 9.825088330245894 2.2709748468252604 L 9.8467899390569 2.523042377806571 L 9.785018449251202 2.5283605586219164 L 9.735610833934448 1.9544834920399596 L 9.797382323740145 1.9491653112246146 M 9.76567699363378 1.4003826472883467 Q 9.751865160921446 1.4183613368158534 9.742446297864735 1.4405769848756995 Q 9.733027434808026 1.4627926329355456 9.72800154140694 1.489245239527731 Q 9.722975648005853 1.5156978461199162 9.722546129712898 1.5448194105359296 Q 9.72211661141994 1.5739409749519429 9.728246431266328 1.605348383451385 Q 9.74606122019489 1.696626164402889 9.789236537852641 1.7325203414397325 Q 9.832411855510394 1.7684145184765758 9.892282227962456 1.7567295493944002 Q 9.933504451617972 1.7486841608460169 9.953133092153463 1.7239664248912712 Q 9.972761732688953 1.6992486889365255 9.979055453134285 1.6531901491967984 Q 9.985349173579614 1.6071316094570713 9.988027010655763 1.5373259564725628 Q 9.989172392770314 1.459668451363194 10.000229358252703 1.4014727168603862 Q 10.01128632373509 1.3432769823575788 10.042345174464387 1.3066491542568666 Q 10.073404025193682 1.2700213261561544 10.136218842192568 1.2577616864633798 Q 10.184311436457339 1.2483753998235991 10.223284351553003 1.2601275012929571 Q 10.262257266648668 1.2718796027623154 10.292325756610037 1.3006526094081823 Q 10.322394246571404 1.3294256160540492 10.342684456900272 1.3733523432803096 Q 10.36297466722914 1.4172790705065699 10.37370185196032 1.4722420353805936 Q 10.384237479821296 1.52622351873901 10.38262406433689 1.5779912392844877 Q 10.381010648852483 1.6297589598299655 10.367547373910295 1.6782356576117972 Q 10.354084098968107 1.726712355393629 10.327202963859627 1.7716946249593102 L 10.26455402701301 1.7482615135144226 Q 10.280544076791367 1.7257822273138868 10.29264374625421 1.6964207219217933 Q 10.304743415717054 1.6670592165296996 10.312258558654072 1.6324792710896592 Q 10.31977370159109 1.5978993256496186 10.319951430325663 1.5596570922878377 Q 10.320129159060235 1.5214148589260568 10.31246688425225 1.482155598301754 Q 10.296184550285284 1.3987296694751106 10.256659671966968 1.3580475604599387 Q 10.217134793648652 1.3173654514447668 10.15726442119659 1.3290504205269427 Q 10.114079234509857 1.3374789228157251 10.092667339231047 1.3661107362505964 Q 10.071255443952237 1.3947425496854675 10.063764987956489 1.445110129228024 Q 10.056274531960742 1.4954777087705806 10.053979808624993 1.5672463247863042 Q 10.051469831254435 1.6431324237346576 10.040628119806856 1.6972106753048353 Q 10.029786408359277 1.7512889268750131 10.000809996260905 1.7829254175448923 Q 9.971833584162534 1.8145619082147717 9.915889137772902 1.825480649816149 Q 9.851111357742802 1.838123403249323 9.800228350501172 1.8149410915861588 Q 9.74934534325954 1.7917587799229948 9.715361786041385 1.740315919983054 Q 9.68137822882323 1.6888730600431132 9.66720302042846 1.616243427888153 Q 9.658199847529078 1.570113796654597 9.659765868684266 1.5285440050055943 Q 9.661331889839452 1.4869742133565915 9.672389845098504 1.4496650774045374 Q 9.683447800357554 1.4123559414524833 9.70420109517297 1.377739460488867 L 9.76567699363378 1.4003826472883467 M 9.767959777999286 1.1929196296834532 L 9.581113236850918 1.245115128156893 L 9.565239348139922 1.1882906646117706 L 9.752085889288292 1.1360951661383307 L 9.767959777999286 1.1929196296834532 M 9.742400126684974 1.1014226121107984 L 9.555553585536604 1.1536181105842382 L 9.53967969682561 1.0967936470391155 L 9.726526237973978 1.0445981485656757 L 9.742400126684974 1.1014226121107984" fill="#3361e1" fill-rule="nonzero"></path></g><g clip-path="url(&quot;#SvgjsClipPath1001&quot;)"><g clip-path="url(&quot;#aeefead2b-40ec-4ecd-835f-ddf385acfe370948f289-8827-4e9a-b559-1f83c8226fcd&quot;)"><path d=" M 5.703307670255852 0.49269310258373966 C 5.611653685189167 0.24038966956088983 5.376288943223152 0.12428971509188223 5.166032577572297 0.20066628358154634 L 1.8379530459424178 1.3984031259454786 C 1.6532256324243955 1.4641075830616554 1.5473772135112007 1.6467636606776308 1.5846297165617074 1.8572303142373237 C 1.2888072008050027 1.9716795086219592 0.5537247866737532 3.501492502226126 0.5537247866737532 3.501492502226126 L 0.12611483844878743 3.7310322691173505 C 0.03008686487828806 3.782710522714088 -0.014473143004309656 3.891292684442167 0.004158365718663462 3.9965207540242917 L 0.4176369664697711 5.327506529822903 C 0.44987410289451024 5.443196422869678 0.570589876962495 5.505746561353297 0.6848077546474094 5.481058760855813 C 0.9042747307053333 5.437739451635354 1.2605550202527274 5.374106330421222 1.5781423345740804 5.388942142389685 C 1.8189535333789784 5.39665970864401 2.1490845214624685 5.226347531276778 2.213506222334739 5.176341066555295 C 2.3992850753969464 5.024860171424432 4.303231802008783 3.433054302295064 4.303231802008783 3.433054302295064 C 4.490461641641968 3.274034585632388 4.508441257847547 2.9805042080820088 4.3389702321156625 2.8068799961505904 C 4.1830943196901025 2.643696578892938 3.918236698509673 2.6391123024802874 3.741458167945696 2.7845263914411977 L 2.8441912041237707 3.5402590782202594 C 2.7048649501236968 3.653867120969546 2.4969007226791655 3.5978148788689954 2.435801570766523 3.4296160949855756 L 2.1836558536753015 2.7162143642554395 L 5.746059202122451 1.4389571491647288 L 6.175435568781649 2.6479654234423338 C 6.2013850967321575 2.7155414429471616 6.164143108077092 2.786471554597943 6.098039103934124 2.804882261016638 L 4.737339646616819 3.2907629887803864 L 4.734416644683982 3.305819603053129 C 4.716847089900636 3.3962013462713494 4.667692291209945 3.488265392760267 4.5852594309457695 3.550405469821654 L 3.661002014024592 4.324338575110573 L 3.6762794306016127 4.366385642482568 C 3.72524497017435 4.516604810160407 3.8957569210549785 4.604463098472583 4.047437589699237 4.547969251763474 L 4.097023478603044 4.534163850548312 C 4.247232131885443 4.4851983109755755 4.3396957254011514 4.331204475334107 4.329854251267572 4.1807855341428715 C 4.35851649324208 4.194170359540359 4.394707042352959 4.209027200299706 4.424830785293884 4.214873204165379 C 4.485078271175737 4.2265862406876105 4.540730966249496 4.221770647575238 4.599317177651535 4.201898440190125 C 4.7750442686713255 4.142260789243901 4.874836395810011 3.950614903525136 4.816660245830204 3.7673595053689737 C 4.845322487804712 3.780733816371019 4.881523551311033 3.7956011715258073 4.911647294251958 3.8014576897869228 C 4.96436647299744 3.8116987109472937 5.027547475207571 3.808344618801341 5.08613368660961 3.788472411416227 C 5.252870969526611 3.7349015666399548 5.349719065941574 3.5583228095893737 5.311215349833486 3.3945085286052104 L 6.201816186945274 3.0751968534313927 C 6.412072552596129 2.9988202849417283 6.5206336855333245 2.7619835276138534 6.465601339790633 2.6027745518332233 Z M 1.9743983555914224 2.144031478704913 L 1.8568053569696703 1.8241520261772353 C 1.8308558290191623 1.7565760066724072 1.8680873032787848 1.6856564094170678 1.934201821817195 1.6672351886029306 L 5.262281353447074 0.46949834623899855 C 5.329857372951902 0.44354881828849047 5.400776970207241 0.4807908069435552 5.419198191021378 0.546894811086523 L 5.5367911896431306 0.8667742636142008 Z" fill="#3361e1" transform="matrix(1,0,0,1,0,0)" fill-rule="nonzero"></path></g><g clip-path="url(&quot;#aeefead2b-40ec-4ecd-835f-ddf385acfe370948f289-8827-4e9a-b559-1f83c8226fcd&quot;)"><path d=" M 5.008442818689713 2.7806886371049204 L 5.630211593144049 2.5576257378058807 C 5.6977876126488765 2.531686724250814 5.72602927880571 2.4668234187699856 5.707608057991573 2.4007194146270177 L 5.582265949929171 2.040254395693764 C 5.5563164219786625 1.9726783761889357 5.491463630893277 1.9444367100321023 5.425359626750309 1.9628474164507976 L 4.803590852295974 2.1859103157498376 C 4.736014832791145 2.2118598437003456 4.707773166634312 2.276723149181174 4.7261838730530075 2.342827153324142 L 4.851525981115409 2.7032921722573957 C 4.869947201929546 2.7693961764003636 4.940866799184885 2.8066381650554284 5.008442818689713 2.7806886371049204" fill="#3361e1" transform="matrix(1,0,0,1,0,0)" fill-rule="nonzero"></path></g><g clip-path="url(&quot;#aeefead2b-40ec-4ecd-835f-ddf385acfe370948f289-8827-4e9a-b559-1f83c8226fcd&quot;)"><path d=" M 6.552523846908482 0.868814056329921 C 6.517794798764022 0.8464289084342032 6.475747731392028 0.8617063250112242 6.4608908906326805 0.8978968741221033 L 6.386427942113435 1.0397570974236654 C 6.373043116715948 1.0684193393981734 6.3807817117611565 1.1090049058037492 6.409443953735664 1.1223897312012359 C 6.484968856194538 1.1761498350954611 6.548580948617785 1.2510438738278233 6.5837305725799204 1.3516771526018563 C 6.620352211903915 1.4447610954486343 6.616388284822333 1.5456151765269464 6.598818730038987 1.635986405349725 C 6.592962211777872 1.6661206626860932 6.609701129321312 1.700639422921716 6.638363371295819 1.7140347627146446 L 6.783136082134776 1.7734410969611483 C 6.819337145641097 1.7882874233250534 6.861384213013091 1.773010006748032 6.8701742476024865 1.7278191351389218 C 6.915974954147223 1.5725846008353148 6.916595303478294 1.4085600319423137 6.854034650599233 1.2478895551952656 C 6.791463483324729 1.0872190784482172 6.683922246745394 0.9568826325509324 6.552523846908482 0.868814056329921" fill="#3361e1" transform="matrix(1,0,0,1,0,0)" fill-rule="nonzero"></path></g><g clip-path="url(&quot;#aeefead2b-40ec-4ecd-835f-ddf385acfe370948f289-8827-4e9a-b559-1f83c8226fcd&quot;)"><path d=" M 6.777395222223521 0.4357261080797471 C 6.742666174079061 0.41334096018402916 6.700619106707067 0.4286183767610504 6.68576226594772 0.46480892587192923 L 6.611288803033032 0.6066586347780497 C 6.597914492030987 0.6353313911479993 6.605642572680753 0.6759169575535753 6.632843313688842 0.6968300900874329 C 6.814027375942958 0.810217330532441 6.9533746587339165 0.977985024202744 7.02975122722358 1.1882413898535995 C 7.1061277957132445 1.3984977555044549 7.101333231391757 1.6242418256411686 7.039203668725811 1.8232057305874674 C 7.024367856757348 1.8593962796983463 7.041106774300788 1.8939150399339695 7.077297323411667 1.9087718806933163 L 7.222080548646066 1.96817821493982 C 7.2582710977569445 1.9830245413037253 7.300318165128939 1.967757639122146 7.307636184356473 1.9300950746494063 C 7.398007413179252 1.666278378617721 7.399447885354786 1.3773427918754344 7.304660610446427 1.1009929364770528 C 7.20671901690551 0.8005651155168142 7.014442267460233 0.5834113064560993 6.777395222223521 0.4357261080797471" fill="#3361e1" transform="matrix(1,0,0,1,0,0)" fill-rule="nonzero"></path></g><g clip-path="url(&quot;#aeefead2b-40ec-4ecd-835f-ddf385acfe370948f289-8827-4e9a-b559-1f83c8226fcd&quot;)"><path d=" M 7.762615103916599 0.9164337532861013 C 7.620534078310758 0.5214499741172242 7.346444817932375 0.2024116732248949 7.000815610967585 0.010166466965944124 C 6.966086562823124 -0.012218680929773924 6.931567802587502 0.0045307510091076334 6.909182654691783 0.039259799153568 L 6.834709191777095 0.18110950805968845 C 6.8213348807750505 0.20977175003419626 6.8290629614248175 0.2503573164397722 6.863792009569277 0.27274246433549015 C 7.144568425448682 0.43674600443760764 7.367189720139164 0.6988803971985957 7.49086003932631 1.0277391434336212 C 7.606991536981644 1.355167931888554 7.602827836386666 1.6982631695518564 7.4886204730971935 2.0043477352598154 C 7.473774146733289 2.040548798766136 7.490513064276729 2.0750675590017593 7.526703613387607 2.0899138853656645 L 7.671486838622006 2.1493307340076098 C 7.707677387732885 2.1641770603715154 7.742196147968508 2.1474381428280753 7.757052988727856 2.1112370793217545 C 7.893424697608768 1.7313099144256199 7.904696129522439 1.3114175324549784 7.762615103916599 0.9164337532861013" fill="#3361e1" transform="matrix(1,0,0,1,0,0)" fill-rule="nonzero"></path></g></g><g><path d=" M -1.379983161110656 2.7431997377521626 A 5.312157725826524 5.312157725826524 0 0 1 9.244332290542392 2.7431997377521626 A 5.312157725826524 5.312157725826524 0 0 1 -1.3799831611106566 2.7431997377521626 Z M -1.3299831611106563 2.7431997377521617 A 5.2621577258265235 5.2621577258265235 0 0 0 9.194332290542391 2.7431997377521617 A 5.2621577258265235 5.2621577258265235 0 0 0 -1.3299831611106558 2.7431997377521617 Z" fill="#000000" fill-rule="nonzero"></path></g><g transform="matrix(0.6685195738088919,-0.7436945471323407,0.7436945471323407,0.6685195738088919,-0.2511188823394237,-1.1925220562123644)"><g clip-path="url(&quot;#SvgjsClipPath1002&quot;)"><path d=" M -1.4633038152958553 -0.11661204795705304 C -1.3531144256406828 -0.11661204795705304 -1.2618417170199931 -0.20768948761222544 -1.2618417170199931 -0.3180741462329151 C -1.2618417170199931 -0.42826309209498403 -1.3531144256406828 -0.5195355788191219 -1.4633038152958553 -0.5195355788191219 C -1.5736886958130967 -0.5195355788191219 -1.6647659135717174 -0.42826309209498403 -1.6647659135717174 -0.3180741462329151 C -1.6647659135717174 -0.20768948761222544 -1.5734936487441313 -0.11661204795705304 -1.4633038152958553 -0.11661204795705304 Z M -1.4633038152958553 -0.15620061175015643 L -1.4633038152958553 -0.47975019278463915 C -1.3737863083993038 -0.47975019278463915 -1.3016277687441313 -0.4077847031294668 -1.301432499778614 -0.3180741462329151 C -1.301432499778614 -0.22836137037084614 -1.3735910394337865 -0.15620061175015643 -1.4633038152958553 -0.15620061175015643 Z" fill="#000000" transform="matrix(1,0,0,1,0,0)" fill-rule="nonzero"></path></g></g><g transform="matrix(-0.6685195738088919,-0.7436945471323407,-0.7436945471323407,0.6685195738088919,15.329433825972213,6.832653644557942)"><g clip-path="url(&quot;#SvgjsClipPath1003&quot;)"><path d=" M 9.327652944727589 -0.11661204795705304 C 9.437842334382763 -0.11661204795705304 9.529115043003452 -0.20768948761222544 9.529115043003452 -0.3180741462329151 C 9.529115043003452 -0.42826309209498403 9.437842334382763 -0.5195355788191219 9.327652944727589 -0.5195355788191219 C 9.217268064210348 -0.5195355788191219 9.126190846451728 -0.42826309209498403 9.126190846451728 -0.3180741462329151 C 9.126190846451728 -0.20768948761222544 9.217463111279313 -0.11661204795705304 9.327652944727589 -0.11661204795705304 Z M 9.327652944727589 -0.15620061175015643 L 9.327652944727589 -0.47975019278463915 C 9.417170451624141 -0.47975019278463915 9.489328991279313 -0.4077847031294668 9.489524260244831 -0.3180741462329151 C 9.489524260244831 -0.22836137037084614 9.41736572058966 -0.15620061175015643 9.327652944727589 -0.15620061175015643 Z" fill="#000000" transform="matrix(1,0,0,1,0,0)" fill-rule="nonzero"></path></g></g></g><defs><clipPath id="SvgjsClipPath1001"><path d=" M 0 0 h 7.8643491294317345 v 5.4863994755043235 h -7.8643491294317345 Z"></path></clipPath><clipPath id="aeefead2b-40ec-4ecd-835f-ddf385acfe370948f289-8827-4e9a-b559-1f83c8226fcd"><path d=" M -0.000005334876311709394 5.486400073740278 L 7.864341879816585 5.486400073740278 L 7.864341879816585 -9.534263339773299e-7 L -0.000005334876311709394 -9.534263339773299e-7 Z"></path></clipPath><clipPath id="SvgjsClipPath1002"><path d=" M -1.7739589877096484 -0.6363115238191219 h 0.6213103448275862 v 0.6435 h -0.6213103448275862 Z"></path></clipPath><clipPath id="SvgjsClipPath1003"><path d=" M 9.016997772313797 -0.6363115238191219 h 0.6213103448275862 v 0.6435 h -0.6213103448275862 Z"></path></clipPath></defs></svg>